<?xml version="1.0" encoding="utf-8"?>
<!-- Generator: Adobe Illustrator 15.1.0, SVG Export Plug-In . SVG Version: 6.00 Build 0)  -->
<!DOCTYPE svg PUBLIC "-//W3C//DTD SVG 1.1//EN" "http://www.w3.org/Graphics/SVG/1.1/DTD/svg11.dtd">
<svg version="1.1" id="Layer_1" xmlns="http://www.w3.org/2000/svg" xmlns:xlink="http://www.w3.org/1999/xlink" x="0px" y="0px"
	 width="716px" height="191.333px" viewBox="0 0 716 191.333" enable-background="new 0 0 716 191.333" xml:space="preserve">
<path fill="#010202" d="M129.769,4.535H98.063c0,0-3.44,0.113-3.44,3.899v93.835c0,0,0.001,3.922,3.44,3.838l68.56,0.084
	c0,0,3.068,0.023,3.068-4.035l-0.119-54.125C169.572,48.031,170.771,8.139,129.769,4.535z M152.283,84.613
	c0,3.846-3.61,3.807-3.61,3.807h-33.047c-3.688,0.104-3.688-3.773-3.688-3.773l-0.023-58.782c0.023-3.281,3.964-3.219,3.964-3.219
	h14.144c21.079,3.127,22.322,25.385,22.322,25.385L152.283,84.613z"/>
<path fill="#010202" d="M185.25,8.434l0.157,93.835c0,0-0.157,3.922,3.636,3.738h68.132c0,0,3.5-0.066,3.45-3.738V91.934
	c0,0,0.222-3.398-3.45-3.398l-51.27,0.066c0,0-3.4-0.203-3.4-3.875V68.271c0,0,0.001-3.698,3.265-3.698h51.405c0,0,3.4,0,3.4-3.781
	l0.054-10.2c0,0,0.082-3.558-3.454-3.558H205.77c0,0-3.265,0.022-3.265-3.514V25.977c0,0,0.001-3.332,3.265-3.332h51.405
	c0,0,3.4,0,3.454-3.468l-0.054-10.743c0,0,0-3.582-3.4-3.74h-68.132C189.043,4.694,185.266,4.626,185.25,8.434z"/>
<path fill="#010202" d="M275.806,47.056l-0.003,13.735c0,0,0.003,3.781,3.811,3.781c3.809,0,49.979,0,49.979,0
	s4.064,0.162,4.079,3.698c0.015,3.537,0,16.456,0,16.456s0.203,3.809-4.079,3.809c-4.284,0-49.979,0-49.979,0s-3.839,0-3.839,3.398
	c0,3.4,0.024,10.336,0.024,10.336s0.007,3.922,3.814,3.922c3.809,0,67.929,0,67.929,0s3.476-0.115,3.562-3.922
	c0.084-3.805-0.063-51.678-0.063-51.678s0.24-3.558-3.5-3.558c-3.74,0-49.978,0-49.978,0s-2.855,0.022-2.855-3.514
	c0,0,6.256-21.079,23.799-20.875h29.034c0,0,3.48-0.203,3.589-3.468c0.107-3.265,0.012-10.842,0.012-10.842s0.139-3.641-3.601-3.641
	c-3.74,0-29.034,0-29.034,0S284.102,4.694,275.806,47.056z"/>
<path fill="#010202" d="M366.337,8.329v52.463c0,0,0,45.4,42.334,45.271l29.104,0.02c0,0,4.039-0.004,4.039-3.813V8.3
	c0,0-0.094-3.606-4.039-3.606c-3.943,0-9.52,0-9.52,0s-3.984-0.051-3.984,3.613c0,3.663,0,76.42,0,76.42s-0.096,3.924-3.904,3.865
	c-3.807-0.057-11.695-0.027-11.695-0.027s-24.613,0.24-24.563-27.773l-0.227-52.469c0,0,0.039-3.628-4.041-3.628
	c-4.078,0-9.52,0-9.52,0S366.298,4.824,366.337,8.329z"/>
<g>
	<path fill="#559C56" d="M2,8.258l0.011,93.632c0,0,0.039,3.576,3.438,3.596c0,0,12.104-1.76,22.79-13.672
		c0,0-5.357-2.479-6.981-4.143c-2.869-2.941-8.598-16.584,7.991-22.296c0,0-19.25-9.157-22.344-20.671
		c-2.815-10.471,4.263-17.34,21.292-21.392c0,0-19.619-6.622-22.747-18.726C5.45,4.586,1.951,4.723,2,8.258z"/>
	<path fill="#559C56" d="M77.255,101.891V8.258c0-3.536-2.992-3.672-2.992-3.672L21.324,4.734
		c7.443,14.155,40.371,22.235,40.371,22.235l-3.408,7.236c-4.961-1.109-22.325-2.787-29.72-0.513
		c-15.91,4.893-5.26,15.165-1.529,17.721c11.05,7.57,17.442,9.746,17.442,9.746c1.632-3.264,3.255-16.852,3.255-16.852l8.472,3.445
		c0.655,1.675-1.12,17.078-1.12,17.078c1.494,1.252,13.191,2.312,13.191,2.312l-0.901,8.579c-1.444,0.691-13.953-1.379-13.953-1.379
		c-5.742,17.809-22.361,31.163-22.361,31.163l43.198-0.189C77.39,105.129,77.255,101.891,77.255,101.891z M59.16,18.259
		c0-3.22,2.61-5.83,5.83-5.83c3.22,0,5.83,2.61,5.83,5.83c0,3.219-2.61,5.829-5.83,5.829C61.77,24.087,59.16,21.478,59.16,18.259z
		 M68.886,42.33c-3.219,0-5.83-2.609-5.83-5.83c0-3.22,2.61-5.83,5.83-5.83c3.22,0,5.83,2.61,5.83,5.83
		C74.715,39.72,72.106,42.33,68.886,42.33z"/>
	<circle fill="#559C56" cx="32.566" cy="77.396" r="6.513"/>
</g>
<path fill="#010202" d="M528.526,105.506c0,0,3.473-0.148,3.438-3.615V91.523c0,0-0.174-3.652-3.438-3.652l-51.406-0.145
	c0,0-3.264,0.359-3.264-3.992c0-4.351,0-30.394,0-30.394s0-30.122,24.887-31.084l29.783-0.143c0,0,3.305,0.152,3.398-3.655v-10.2
	c0,0,0.273-3.672-3.398-3.672h-29.783c0,0-41.342,0.147-42.066,48.754l0.039,48.55c0,0,0.006,3.615,3.678,3.615"/>
<path fill="#010202" d="M618.894,4.586h-67.93c0,0-3.734,0.136-3.84,3.672l0.201,93.632c0,0-0.033,3.615,3.639,3.615h67.93
	c0,0,3.684,0.123,3.684-3.615V8.258C622.577,8.258,622.767,4.586,618.894,4.586z M605.021,26.347v57.388
	c0,4.352-4.078,4.137-4.078,4.137h-32.027c-3.535,0-3.672-4.137-3.672-4.137V26.347c0.137-4.08,3.672-4.09,3.672-4.09h32.027
	C605.224,22.256,605.021,26.347,605.021,26.347z"/>
<path fill="#010202" d="M713.163,102.488V50.024c0,0,0-45.4-42.334-45.271l-29.104-0.019c0,0-4.039,0.004-4.039,3.812v93.97
	c0,0,0.096,3.607,4.039,3.607c3.945,0,9.52,0,9.52,0s3.984,0.051,3.984-3.613s0-76.42,0-76.42s0.096-3.924,3.902-3.866
	c3.809,0.058,11.697,0.027,11.697,0.027s24.613-0.241,24.563,27.773l0.225,52.47c0,0-0.037,3.629,4.043,3.629s9.52,0,9.52,0
	S713.202,105.992,713.163,102.488z"/>
<g>
	<path fill="#010202" d="M317.563,148.035c0,6.307-0.87,11.377-2.611,15.21c-1.74,3.835-4.364,6.621-7.87,8.362
		c-3.506,1.74-8.438,2.61-14.794,2.61h-15.966v-52.364h15.815c6.18,0,11.092,0.896,14.737,2.687c3.645,1.791,6.337,4.584,8.078,8.38
		C316.693,136.717,317.563,141.755,317.563,148.035z M306.553,147.96c0-4.565-0.448-7.951-1.343-10.159
		c-0.896-2.207-2.416-3.789-4.559-4.748c-2.144-0.958-5.322-1.438-9.535-1.438h-4.086v32.841h4.086c4.212,0,7.384-0.485,9.516-1.456
		c2.131-0.971,3.651-2.592,4.559-4.862C306.099,155.867,306.553,152.476,306.553,147.96z"/>
	<path fill="#010202" d="M334.362,156.927c0.176,3.532,1.034,6.066,2.573,7.605c1.538,1.538,3.959,2.308,7.264,2.308
		c1.917,0,3.6-0.239,5.051-0.719c1.45-0.479,2.717-1.4,3.802-2.762l7.265,5.183c-1.589,2.296-3.651,4.011-6.187,5.146
		c-2.535,1.135-5.997,1.702-10.386,1.702c-6.533,0-11.407-1.715-14.624-5.146c-3.216-3.43-4.824-8.613-4.824-15.551
		c0-14.2,6.356-21.301,19.069-21.301c5.65,0,9.957,1.596,12.921,4.786c2.963,3.19,4.445,7.838,4.445,13.942v4.805H334.362z
		 M351.048,150.192c0-6.028-2.636-9.043-7.908-9.043c-1.74,0-3.166,0.297-4.275,0.89s-1.999,1.476-2.667,2.648
		c-0.669,1.173-1.192,3.008-1.57,5.505H351.048z"/>
	<path fill="#010202" d="M399.854,162.905c0,2.623-0.662,4.868-1.986,6.734c-1.324,1.867-3.203,3.292-5.637,4.275
		c-2.435,0.983-5.216,1.476-8.343,1.476c-8.3,0-13.949-2.308-16.95-6.924l7.264-5.107c1.186,1.614,2.554,2.692,4.105,3.234
		c1.551,0.543,3.21,0.813,4.976,0.813c4.641,0,6.962-1.349,6.962-4.048c0-1.186-0.656-2.101-1.968-2.743
		c-1.312-0.644-3.367-1.306-6.167-1.986c-5.272-1.16-8.98-2.8-11.124-4.919c-2.145-2.119-3.216-4.868-3.216-8.248
		c0-3.506,1.343-6.395,4.029-8.664c2.687-2.271,6.641-3.405,11.861-3.405c3.557,0,6.69,0.567,9.402,1.702
		c2.711,1.135,4.799,2.838,6.262,5.107l-7.302,5.184c-1.741-2.673-4.578-4.01-8.514-4.01c-2.019,0-3.544,0.347-4.578,1.04
		c-1.034,0.694-1.551,1.583-1.551,2.667c0,1.035,0.466,1.861,1.399,2.479c0.934,0.618,2.774,1.268,5.524,1.948
		c4.515,1.11,7.737,2.214,9.667,3.311c1.93,1.098,3.392,2.46,4.389,4.087C399.356,158.535,399.854,160.534,399.854,162.905z"/>
	<path fill="#010202" d="M433.643,174.218v-5.107c-1.716,1.841-3.815,3.348-6.3,4.521c-2.485,1.174-4.875,1.76-7.17,1.76
		c-4.49,0-7.631-1.242-9.421-3.727c-1.792-2.484-2.687-6.021-2.687-10.613v-26.522h9.762v21.869c0,2.8,0.163,4.943,0.491,6.432
		s0.864,2.517,1.608,3.084s1.835,0.852,3.272,0.852c2.9,0,6.382-1.904,10.443-5.714v-26.522h9.761v39.689H433.643z"/>
	<path fill="#010202" d="M489.449,173.461c0,5.297-1.627,9.238-4.881,11.824c-3.253,2.585-8.475,3.878-15.663,3.878
		c-5.928,0-11.111-1.136-15.551-3.405l2.876-7.983c4.11,1.917,8.336,2.875,12.675,2.875c4.035,0,6.842-0.58,8.418-1.74
		s2.365-3.115,2.365-5.864v-3.254c-3.229,2.951-7.127,4.427-11.691,4.427c-4.843,0-8.652-1.74-11.427-5.222
		c-2.774-3.48-4.162-8.487-4.162-15.021c0-4.086,0.649-7.687,1.949-10.802c1.299-3.115,3.203-5.524,5.713-7.227
		c2.51-1.703,5.543-2.554,9.1-2.554c2.093,0,4.187,0.46,6.28,1.381s3.847,2.087,5.26,3.5l1.286-3.746h7.453V173.461z
		 M479.688,145.538c-2.675-2.37-5.588-3.557-8.74-3.557c-2.371,0-4.377,1.085-6.016,3.254c-1.641,2.17-2.46,5.032-2.46,8.589
		c0,4.036,0.725,7.013,2.176,8.93c1.45,1.917,3.335,2.875,5.656,2.875c3.229,0,6.356-1.299,9.384-3.896V145.538z"/>
	<path fill="#010202" d="M523.88,174.218v-4.124c-3.859,3.531-7.996,5.297-12.41,5.297c-4.389,0-7.706-1.154-9.95-3.462
		c-2.246-2.308-3.368-5.265-3.368-8.872c0-2.825,0.574-5.158,1.722-7c1.147-1.841,2.851-3.285,5.108-4.332
		c2.257-1.047,5.505-1.784,9.742-2.214l8.361-0.794v-1.778c0-2.22-0.668-3.739-2.005-4.56c-1.337-0.819-3.292-1.229-5.864-1.229
		c-2.119,0-3.941,0.354-5.468,1.06s-2.654,1.716-3.386,3.026l-7.605-4.881c1.337-2.244,3.431-3.966,6.281-5.164
		c2.85-1.198,6.293-1.797,10.329-1.797c6.18,0,10.638,1.078,13.375,3.234c2.736,2.157,4.104,5.694,4.104,10.613v26.977H523.88z
		 M523.085,155.792l-4.956,0.454c-3.506,0.303-6.035,0.971-7.586,2.005c-1.551,1.035-2.327,2.586-2.327,4.654
		c0,1.815,0.505,3.059,1.514,3.727c1.009,0.669,2.346,1.003,4.011,1.003c1.186,0,2.63-0.372,4.332-1.116s3.373-1.798,5.013-3.159
		V155.792z"/>
	<path fill="#010202" d="M543.555,174.218v-56.337h9.762v56.337H543.555z"/>
	<path fill="#010202" d="M564.326,174.218v-56.337h9.762v56.337H564.326z"/>
	<path fill="#010202" d="M593.157,156.927c0.177,3.532,1.034,6.066,2.573,7.605c1.538,1.538,3.96,2.308,7.265,2.308
		c1.916,0,3.6-0.239,5.051-0.719c1.45-0.479,2.718-1.4,3.803-2.762l7.264,5.183c-1.589,2.296-3.65,4.011-6.186,5.146
		c-2.535,1.135-5.997,1.702-10.386,1.702c-6.533,0-11.408-1.715-14.624-5.146c-3.216-3.43-4.824-8.613-4.824-15.551
		c0-14.2,6.356-21.301,19.069-21.301c5.65,0,9.957,1.596,12.921,4.786s4.446,7.838,4.446,13.942v4.805H593.157z M609.843,150.192
		c0-6.028-2.636-9.043-7.907-9.043c-1.74,0-3.166,0.297-4.275,0.89c-1.11,0.593-2,1.476-2.668,2.648s-1.191,3.008-1.57,5.505
		H609.843z"/>
	<path fill="#010202" d="M652.295,144.063c-1.01-0.504-2.347-0.757-4.011-0.757c-1.816,0-3.538,0.436-5.165,1.306
		s-3.298,2.138-5.013,3.803v25.804h-9.762v-39.689h9.762v5.675c1.664-1.815,3.455-3.316,5.372-4.502s4.062-1.778,6.433-1.778
		c2.018,0,3.455,0.265,4.313,0.795L652.295,144.063z"/>
	<path fill="#010202" d="M670.455,123.707c0,1.842-0.454,3.128-1.362,3.859c-0.908,0.732-2.296,1.098-4.162,1.098
		c-2.068,0-3.475-0.429-4.219-1.287c-0.744-0.856-1.116-2.08-1.116-3.67c0-1.765,0.403-3.032,1.211-3.802s2.182-1.154,4.124-1.154
		c1.968,0,3.38,0.372,4.238,1.116C670.025,120.611,670.455,121.892,670.455,123.707z M660.126,174.218v-39.689h9.762v39.689H660.126
		z"/>
	<path fill="#010202" d="M704.317,174.218v-4.124c-3.859,3.531-7.996,5.297-12.41,5.297c-4.389,0-7.706-1.154-9.95-3.462
		c-2.246-2.308-3.368-5.265-3.368-8.872c0-2.825,0.574-5.158,1.722-7c1.147-1.841,2.851-3.285,5.108-4.332
		c2.257-1.047,5.505-1.784,9.742-2.214l8.361-0.794v-1.778c0-2.22-0.668-3.739-2.005-4.56c-1.337-0.819-3.292-1.229-5.864-1.229
		c-2.119,0-3.941,0.354-5.468,1.06s-2.654,1.716-3.386,3.026l-7.605-4.881c1.337-2.244,3.431-3.966,6.281-5.164
		c2.85-1.198,6.293-1.797,10.329-1.797c6.18,0,10.638,1.078,13.375,3.234c2.736,2.157,4.104,5.694,4.104,10.613v26.977H704.317z
		 M703.522,155.792l-4.956,0.454c-3.506,0.303-6.035,0.971-7.586,2.005c-1.551,1.035-2.327,2.586-2.327,4.654
		c0,1.815,0.505,3.059,1.514,3.727c1.009,0.669,2.346,1.003,4.011,1.003c1.186,0,2.63-0.372,4.332-1.116s3.373-1.798,5.013-3.159
		V155.792z"/>
</g>
</svg>
