<?xml version="1.0" encoding="utf-8"?>
<!-- Generator: Adobe Illustrator 15.1.0, SVG Export Plug-In . SVG Version: 6.00 Build 0)  -->
<!DOCTYPE svg PUBLIC "-//W3C//DTD SVG 1.1//EN" "http://www.w3.org/Graphics/SVG/1.1/DTD/svg11.dtd">
<svg version="1.1" xmlns="http://www.w3.org/2000/svg" xmlns:xlink="http://www.w3.org/1999/xlink" x="0px" y="0px" width="853px"
	 height="700.5px" viewBox="0 0 853 700.5" enable-background="new 0 0 853 700.5" xml:space="preserve">
<g id="Layer_2">
	<path d="M86.716-0.389H9c0,0-8.432,0.277-8.432,9.556v230c0,0,0.003,9.615,8.432,9.405l168.049,0.209c0,0,7.521,0.054,7.521-9.892
		l-0.294-132.667C184.275,106.223,187.216,8.444,86.716-0.389z M141.899,195.89c0,9.424-8.851,9.333-8.851,9.333h-81
		c-9.041,0.25-9.041-9.25-9.041-9.25L42.951,51.89c0.057-8.042,9.715-7.89,9.715-7.89h34.667
		c51.667,7.667,54.713,62.223,54.713,62.223L141.899,195.89z"/>
	<path d="M222.707,9.167l0.384,230c0,0-0.384,9.615,8.911,9.164h167c0,0,8.58-0.164,8.457-9.164l0.001-25.333
		c0,0,0.542-8.333-8.458-8.333l-125.668,0.167c0,0-8.333-0.5-8.333-9.5v-40.333c0,0,0.001-9.064,8.001-9.064h126
		c0,0,8.333,0,8.333-9.27l0.132-25c0,0,0.201-8.718-8.466-8.718h-126c0,0-8.001,0.052-8.001-8.615v-43c0,0,0.001-8.167,8.001-8.167
		h126c0,0,8.333,0,8.466-8.5l-0.133-26.333c0,0,0-8.778-8.333-9.167h-167C232.001,0,222.745-0.166,222.707,9.167z"/>
	<path d="M444.667,103.833L444.66,137.5c0,0,0.007,9.27,9.34,9.27s122.5,0,122.5,0s9.964,0.396,10,9.064s0,40.333,0,40.333
		s0.5,9.333-10,9.333s-122.5,0-122.5,0s-9.408,0-9.408,8.333s0.058,25.333,0.058,25.333s0.018,9.615,9.351,9.615s166.5,0,166.5,0
		s8.522-0.287,8.73-9.615S629.08,112.5,629.08,112.5s0.587-8.718-8.58-8.718s-122.5,0-122.5,0s-7,0.052-7-8.615
		c0,0,15.333-51.667,58.334-51.167H620.5c0,0,8.53-0.497,8.796-8.5s0.027-26.576,0.027-26.576S629.666,0,620.5,0s-71.166,0-71.166,0
		S465,0,444.667,103.833z"/>
	<path d="M666.568,8.909V137.5c0,0-0.001,111.282,103.765,110.964l71.334,0.047c0,0,9.898-0.011,9.898-9.344l0.003-230.329
		c0,0-0.234-8.838-9.901-8.838s-23.334,0-23.334,0s-9.765-0.125-9.765,8.854s0,187.313,0,187.313s-0.235,9.618-9.568,9.476
		s-28.667-0.066-28.667-0.066S710,206.167,710.129,137.5L709.573,8.893c0,0,0.094-8.893-9.906-8.893s-23.334,0-23.334,0
		S666.47,0.318,666.568,8.909z"/>
	<g>
		<path fill="#549C56" d="M0.545,294.5L0.571,524c0,0,0.094,8.766,8.428,8.813c0,0,29.667-4.313,55.859-33.512
			c0,0-13.13-6.072-17.113-10.154C40.714,481.94,26.672,448.5,67.333,434.5c0,0-47.182-22.444-54.768-50.667
			c-6.899-25.666,10.449-42.503,52.188-52.435c0,0-48.087-16.231-55.754-45.898C9,285.5,0.423,285.833,0.545,294.5z"/>
		<path fill="#549C56" d="M185,524V294.5c0-8.667-7.334-9-7.334-9l-129.757,0.361c18.243,34.695,98.951,54.5,98.951,54.5
			l-8.353,17.736c-12.159-2.72-54.72-6.83-72.846-1.256c-38.995,11.991-12.892,37.17-3.747,43.435
			c27.085,18.557,42.752,23.89,42.752,23.89c4-8,7.98-41.305,7.98-41.305l20.765,8.445c1.607,4.105-2.746,41.859-2.746,41.859
			c3.662,3.069,32.333,5.667,32.333,5.667l-2.207,21.028c-3.541,1.694-34.2-3.38-34.2-3.38c-14.074,43.648-54.81,76.38-54.81,76.38
			l105.883-0.462C185.332,531.938,185,524,185,524z M140.648,319.011c0-7.893,6.397-14.289,14.289-14.289
			c7.892,0,14.289,6.396,14.289,14.289c0,7.892-6.397,14.288-14.289,14.288C147.045,333.299,140.648,326.902,140.648,319.011z
			 M164.488,378.011c-7.891,0-14.289-6.396-14.289-14.288c0-7.893,6.397-14.289,14.289-14.289c7.892,0,14.289,6.396,14.289,14.289
			C178.776,371.614,172.379,378.011,164.488,378.011z"/>
		<circle fill="#549C56" cx="75.464" cy="463.964" r="15.964"/>
	</g>
	<path d="M399.001,532.861c0,0,8.515-0.362,8.424-8.861l0.001-25.41c0,0-0.424-8.952-8.425-8.952l-126-0.355
		c0,0-8.001,0.884-8.001-9.782s0-74.5,0-74.5s0-73.831,61-76.19l73.001-0.35c0,0,8.103,0.374,8.333-8.96v-25c0,0,0.668-9-8.333-9
		H326c0,0-101.333,0.361-103.105,119.5l0.096,119c0,0,0.013,8.861,9.011,8.861"/>
	<path d="M620.5,285.5H454c0,0-9.151,0.331-9.408,9l0.491,229.5c0,0-0.084,8.861,8.917,8.861h166.5c0,0,9.029,0.304,9.029-8.861
		V294.5C629.529,294.5,629.999,285.5,620.5,285.5z M586.5,338.835V479.5c0,10.665-10,10.138-10,10.138H498
		c-8.668,0-9-10.138-9-10.138V338.835c0.332-10,9-10.025,9-10.025h78.5C586.999,328.81,586.5,338.835,586.5,338.835z"/>
	<path d="M851.564,525.463v-128.59c0,0,0.001-111.281-103.765-110.965l-71.334-0.047c0,0-9.898,0.012-9.898,9.344l-0.003,230.329
		c0,0,0.234,8.838,9.901,8.838s23.334,0,23.334,0s9.765,0.125,9.765-8.854c0-8.979,0-187.313,0-187.313s0.235-9.617,9.568-9.475
		s28.667,0.066,28.667,0.066s60.333-0.59,60.204,68.076l0.556,128.606c0,0-0.094,8.893,9.906,8.893s23.334,0,23.334,0
		S851.663,534.054,851.564,525.463z"/>
	<g>
		<path d="M82.233,619.399c0,12.257-1.691,22.111-5.074,29.563c-3.383,7.453-8.482,12.869-15.296,16.252
			c-6.815,3.383-16.399,5.074-28.754,5.074H2.076V568.511h30.739c12.011,0,21.558,1.74,28.643,5.221
			c7.084,3.482,12.318,8.911,15.701,16.289C80.542,597.399,82.233,607.192,82.233,619.399z M60.833,619.252
			c0-8.873-0.871-15.454-2.61-19.745c-1.741-4.289-4.695-7.365-8.861-9.229c-4.168-1.863-10.345-2.795-18.532-2.795h-7.942v63.832
			h7.942c8.187,0,14.351-0.943,18.495-2.832c4.143-1.887,7.097-5.037,8.861-9.449C59.951,634.622,60.833,628.028,60.833,619.252z"/>
		<path d="M114.884,636.681c0.343,6.864,2.01,11.792,5.001,14.781c2.99,2.991,7.696,4.486,14.119,4.486
			c3.725,0,6.998-0.466,9.817-1.397c2.819-0.931,5.282-2.721,7.391-5.368l14.12,10.074c-3.089,4.462-7.097,7.796-12.023,10.002
			c-4.927,2.206-11.656,3.309-20.187,3.309c-12.698,0-22.172-3.333-28.423-10.001c-6.25-6.667-9.376-16.741-9.376-30.225
			c0-27.601,12.354-41.402,37.063-41.402c10.981,0,19.352,3.102,25.113,9.303c5.76,6.203,8.641,15.235,8.641,27.1v9.339H114.884z
			 M147.314,623.591c0-11.717-5.124-17.575-15.37-17.575c-3.383,0-6.153,0.576-8.31,1.728c-2.158,1.152-3.886,2.868-5.185,5.148
			c-1.3,2.279-2.316,5.846-3.052,10.699H147.314z"/>
		<path d="M242.179,648.3c0,5.1-1.287,9.463-3.861,13.09c-2.574,3.629-6.227,6.398-10.957,8.311
			c-4.732,1.911-10.137,2.867-16.215,2.867c-16.13,0-27.111-4.485-32.945-13.457l14.12-9.928c2.304,3.138,4.964,5.233,7.979,6.287
			c3.015,1.055,6.238,1.581,9.67,1.581c9.02,0,13.531-2.622,13.531-7.868c0-2.304-1.275-4.081-3.824-5.332
			c-2.55-1.25-6.545-2.537-11.987-3.86c-10.248-2.255-17.454-5.442-21.621-9.561c-4.167-4.118-6.251-9.461-6.251-16.031
			c0-6.813,2.611-12.428,7.832-16.84s12.906-6.619,23.054-6.619c6.913,0,13.004,1.104,18.274,3.31
			c5.27,2.206,9.327,5.516,12.171,9.928l-14.193,10.075c-3.383-5.196-8.898-7.795-16.546-7.795c-3.923,0-6.889,0.674-8.898,2.021
			c-2.011,1.35-3.015,3.077-3.015,5.185c0,2.011,0.906,3.616,2.721,4.817c1.813,1.201,5.393,2.463,10.737,3.787
			c8.775,2.157,15.039,4.302,18.789,6.435s6.593,4.78,8.53,7.942C241.211,639.807,242.179,643.692,242.179,648.3z"/>
		<path d="M307.85,670.288v-9.928c-3.335,3.579-7.416,6.508-12.245,8.788c-4.829,2.279-9.475,3.419-13.936,3.419
			c-8.727,0-14.831-2.414-18.311-7.243c-3.481-4.828-5.221-11.704-5.221-20.628v-51.55h18.973v42.505
			c0,5.441,0.318,9.609,0.956,12.502c0.636,2.893,1.679,4.89,3.125,5.993c1.446,1.103,3.567,1.654,6.361,1.654
			c5.637,0,12.403-3.701,20.297-11.104v-51.55h18.973v77.142H307.85z"/>
		<path d="M416.319,668.817c0,10.295-3.162,17.955-9.486,22.98s-16.473,7.538-30.445,7.538c-11.521,0-21.597-2.206-30.225-6.618
			l5.589-15.517c7.991,3.725,16.203,5.589,24.636,5.589c7.843,0,13.298-1.129,16.362-3.383c3.063-2.256,4.596-6.056,4.596-11.398
			v-6.325c-6.276,5.736-13.851,8.604-22.724,8.604c-9.413,0-16.816-3.383-22.208-10.148c-5.394-6.766-8.089-16.497-8.089-29.194
			c0-7.942,1.262-14.94,3.787-20.996c2.524-6.054,6.226-10.736,11.104-14.046c4.877-3.309,10.773-4.964,17.686-4.964
			c4.069,0,8.137,0.896,12.208,2.685c4.068,1.79,7.476,4.058,10.222,6.803l2.5-7.28h14.487V668.817z M397.346,614.546
			c-5.197-4.607-10.86-6.913-16.988-6.913c-4.608,0-8.506,2.108-11.692,6.324c-3.188,4.218-4.78,9.781-4.78,16.693
			c0,7.845,1.409,13.63,4.229,17.355c2.819,3.727,6.483,5.589,10.994,5.589c6.275,0,12.354-2.524,18.238-7.574V614.546z"/>
		<path d="M483.239,670.288v-8.016c-7.501,6.864-15.542,10.295-24.121,10.295c-8.53,0-14.978-2.242-19.34-6.729
			c-4.364-4.485-6.546-10.233-6.546-17.245c0-5.489,1.115-10.025,3.347-13.604c2.23-3.578,5.539-6.385,9.928-8.42
			c4.387-2.034,10.699-3.468,18.936-4.302l16.253-1.545v-3.456c0-4.313-1.3-7.268-3.898-8.861c-2.599-1.593-6.397-2.39-11.398-2.39
			c-4.118,0-7.66,0.687-10.626,2.059c-2.967,1.373-5.16,3.335-6.582,5.883l-14.781-9.486c2.599-4.362,6.667-7.709,12.208-10.038
			c5.539-2.327,12.231-3.493,20.076-3.493c12.011,0,20.676,2.097,25.995,6.288s7.979,11.067,7.979,20.628v52.433H483.239z
			 M481.695,634.475l-9.634,0.883c-6.815,0.588-11.729,1.888-14.745,3.897c-3.015,2.011-4.522,5.025-4.522,9.045
			c0,3.53,0.98,5.945,2.941,7.244s4.56,1.948,7.796,1.948c2.304,0,5.11-0.723,8.42-2.169c3.309-1.445,6.557-3.493,9.744-6.141
			V634.475z"/>
		<path d="M521.479,670.288V560.789h18.973v109.499H521.479z"/>
		<path d="M561.853,670.288V560.789h18.973v109.499H561.853z"/>
		<path d="M617.89,636.681c0.342,6.864,2.01,11.792,5,14.781c2.99,2.991,7.696,4.486,14.12,4.486c3.725,0,6.997-0.466,9.817-1.397
			c2.818-0.931,5.282-2.721,7.391-5.368l14.119,10.074c-3.089,4.462-7.097,7.796-12.023,10.002
			c-4.928,2.206-11.656,3.309-20.187,3.309c-12.698,0-22.172-3.333-28.423-10.001c-6.251-6.667-9.376-16.741-9.376-30.225
			c0-27.601,12.354-41.402,37.063-41.402c10.981,0,19.353,3.102,25.113,9.303c5.76,6.203,8.641,15.235,8.641,27.1v9.339H617.89z
			 M650.32,623.591c0-11.717-5.124-17.575-15.37-17.575c-3.383,0-6.153,0.576-8.31,1.728c-2.158,1.152-3.887,2.868-5.185,5.148
			c-1.3,2.279-2.316,5.846-3.052,10.699H650.32z"/>
		<path d="M732.83,611.678c-1.961-0.98-4.56-1.471-7.795-1.471c-3.53,0-6.876,0.846-10.038,2.537s-6.41,4.155-9.744,7.391v50.153
			H686.28v-77.142h18.973v11.03c3.236-3.529,6.717-6.446,10.442-8.751c3.726-2.304,7.894-3.456,12.502-3.456
			c3.922,0,6.716,0.515,8.384,1.544L732.83,611.678z"/>
		<path d="M768.129,572.114c0,3.579-0.883,6.079-2.647,7.501s-4.462,2.133-8.089,2.133c-4.021,0-6.755-0.834-8.2-2.501
			c-1.446-1.666-2.169-4.044-2.169-7.133c0-3.432,0.783-5.895,2.353-7.391c1.569-1.495,4.24-2.243,8.017-2.243
			c3.823,0,6.568,0.724,8.236,2.169C767.295,566.097,768.129,568.584,768.129,572.114z M748.053,670.288v-77.142h18.973v77.142
			H748.053z"/>
		<path d="M833.946,670.288v-8.016c-7.501,6.864-15.542,10.295-24.121,10.295c-8.53,0-14.978-2.242-19.34-6.729
			c-4.364-4.485-6.546-10.233-6.546-17.245c0-5.489,1.115-10.025,3.347-13.604c2.23-3.578,5.539-6.385,9.928-8.42
			c4.387-2.034,10.699-3.468,18.936-4.302l16.253-1.545v-3.456c0-4.313-1.3-7.268-3.898-8.861c-2.599-1.593-6.397-2.39-11.398-2.39
			c-4.118,0-7.66,0.687-10.626,2.059c-2.967,1.373-5.16,3.335-6.582,5.883l-14.781-9.486c2.599-4.362,6.667-7.709,12.208-10.038
			c5.539-2.327,12.231-3.493,20.076-3.493c12.011,0,20.676,2.097,25.995,6.288s7.979,11.067,7.979,20.628v52.433H833.946z
			 M832.402,634.475l-9.634,0.883c-6.815,0.588-11.729,1.888-14.745,3.897c-3.015,2.011-4.522,5.025-4.522,9.045
			c0,3.53,0.98,5.945,2.941,7.244s4.56,1.948,7.796,1.948c2.304,0,5.11-0.723,8.42-2.169c3.309-1.445,6.557-3.493,9.744-6.141
			V634.475z"/>
	</g>
</g>
<g id="Layer_3" display="none">
</g>
</svg>
